# xmcd
# 
# Track frame offsets:
#     150
#     11771
#     20833
#     31228
#     40570
#     53463
#     63963
#     79118
#     90298
#     100067
#     112744
#     124310
#     138092
#     150575
#     160749
#     171889
#     184790
#     196609
#     207614
#     216237
# 
# Disc length: 3016
# 
# Revision: 0
# Processed by: cddbd v1.5.2PL0 Copyright (c) Steve Scherf et al.
# Submitted via: BonkEnc v1.0.15
# 
DISCID=f70bc614
DTITLE=Various Artist - Country Love
DYEAR=0
DGENRE=
TTITLE0=Pasty Cline - Walking after midnight
TTITLE1=Jerry Lee Lewis - Jambalaya
TTITLE2=Jerry Wallace - You're singing our love song
TTITLE3=Conway Twitty - Give me some love
TTITLE4=Hank Williams - i can't get you of my mind
TTITLE5=Willie Nelson - Broken Promises
TTITLE6=Barbara Fairchild - Baby doll
TTITLE7=Razzy Bailey - If I could write a song
TTITLE8=Donna Fargo - Sticks and Stones
TTITLE9=Johnny Cash - Fulsom Prison Blues
TTITLE10=Kitty Wells - I dont claim to be an angel
TTITLE11=Anne Murray - There goes my everything
TTITLE12=Billie Jo Spears - The cheating kind
TTITLE13=Leroy Van Dyke - Walk on by
TTITLE14=Pasty Cline - I can't forget
TTITLE15=Freddy Fender - You'll lose a good thing
TTITLE16=Barbara Fairchild - Cheatin Is
TTITLE17=Johnny Cash - I love you because
TTITLE18=Waylon Jennings - Alilene
TTITLE19=Mickey Gilley - I Miss You So Much
EXTD=
EXTT0=
EXTT1=
EXTT2=
EXTT3=
EXTT4=
EXTT5=
EXTT6=
EXTT7=
EXTT8=
EXTT9=
EXTT10=
EXTT11=
EXTT12=
EXTT13=
EXTT14=
EXTT15=
EXTT16=
EXTT17=
EXTT18=
EXTT19=
PLAYORDER=
